<?xml version="1.0" standalone="no"?>
<!DOCTYPE svg PUBLIC "-//W3C//DTD SVG 20010904//EN"
 "http://www.w3.org/TR/2001/REC-SVG-20010904/DTD/svg10.dtd">
<svg version="1.0" xmlns="http://www.w3.org/2000/svg"
 width="354.000000pt" height="354.000000pt" viewBox="0 0 354.000000 354.000000"
 preserveAspectRatio="xMidYMid meet">
<metadata>
Created by potrace 1.14, written by Peter Selinger 2001-2017
</metadata>
<g transform="translate(0.000000,354.000000) scale(0.100000,-0.100000)"
fill="#000000" stroke="none">
<path d="M643 2698 c3 -7 112 -274 241 -592 l236 -579 0 -354 0 -353 150 0
150 0 0 359 0 359 84 203 c46 112 129 320 186 461 56 142 106 255 111 252 5
-3 9 -323 9 -715 l0 -710 23 6 c12 4 56 21 97 39 51 22 74 37 71 47 -2 8 -11
43 -18 79 -27 119 14 267 96 349 50 50 98 75 198 102 100 27 125 41 187 99 73
68 92 76 110 48 41 -63 61 -367 31 -483 -35 -138 -128 -261 -230 -305 -104
-45 -221 -35 -300 26 l-44 33 -83 -39 c-46 -21 -95 -42 -110 -45 -28 -7 -28
-8 -28 -87 l0 -80 368 4 c344 4 371 5 432 26 177 59 251 163 287 401 13 90 14
121 3 208 -18 155 -47 235 -112 309 -30 34 -31 38 -19 67 62 153 76 369 36
545 -40 175 -156 291 -319 321 -37 7 -215 11 -459 11 -463 0 -454 2 -492 -84
-12 -28 -75 -203 -141 -388 -65 -186 -121 -338 -124 -338 -3 0 -33 78 -67 173
-34 94 -94 261 -133 370 -77 216 -88 238 -126 255 -36 17 -308 16 -301 0z
m1833 -333 c74 -37 99 -85 99 -195 0 -110 -28 -172 -96 -210 -41 -23 -55 -25
-211 -28 l-168 -4 0 231 0 231 163 0 c154 0 166 -1 213 -25z"/>
<path d="M2481 1699 c-54 -49 -119 -79 -208 -99 -136 -31 -217 -118 -244 -264
-11 -60 2 -180 21 -191 15 -9 159 113 166 140 12 48 -1 140 -24 172 -19 27
-20 32 -7 43 12 10 18 10 32 -1 24 -20 53 -89 53 -128 0 -28 2 -31 14 -22 17
15 62 123 71 174 5 27 12 37 26 37 29 0 31 -18 10 -91 l-18 -65 58 4 c62 5 92
-8 87 -37 -2 -12 -15 -14 -60 -12 -73 3 -111 -15 -176 -83 l-51 -53 44 -6 c59
-9 135 -47 135 -68 0 -30 -15 -30 -75 -3 -45 21 -66 25 -101 20 -44 -6 -137
-47 -149 -65 -11 -19 70 -62 128 -68 89 -9 159 18 233 91 89 90 116 161 122
326 4 116 -9 256 -26 285 -5 9 -23 -2 -61 -36z"/>
</g>
</svg>
